<svg width="24" height="24" viewBox="0 0 24 24" fill="none" xmlns="http://www.w3.org/2000/svg">
<g clip-path="url(#clip0_14_206)">
<mask id="mask0_14_206" style="mask-type:luminance" maskUnits="userSpaceOnUse" x="0" y="0" width="24" height="24">
<path d="M24 0H0V24H24V0Z" fill="white"/>
</mask>
<g mask="url(#mask0_14_206)">
<path d="M19.2328 10.8283L19.7625 10.2987L18.1735 8.70958L15.2625 5.79864L13.6735 4.20958L13.1438 4.73927L12.0844 5.79864L2.74695 15.1362C2.25945 15.6237 1.9032 16.2283 1.70633 16.8893L0.0469495 22.533C-0.070238 22.9268 0.0375745 23.3533 0.332887 23.644C0.628199 23.9346 1.05008 24.0424 1.44383 23.9299L7.08289 22.2705C7.74383 22.0737 8.34851 21.7174 8.83601 21.2299L18.1735 11.8924L19.2328 10.8283ZM7.50008 18.7221L7.07351 19.7862C6.88601 19.9315 6.67508 20.0393 6.45008 20.1096L2.78445 21.1877L3.86258 17.5268C3.9282 17.2971 4.0407 17.0862 4.18601 16.9033L5.25008 16.4768V17.9768C5.25008 18.3893 5.58758 18.7268 6.00008 18.7268H7.50008V18.7221ZM17.0016 0.87677L16.3266 1.55645L15.2672 2.61583L14.7328 3.14552L16.3219 4.73458L19.2328 7.64552L20.8219 9.23458L21.3516 8.70489L22.411 7.64552L23.0907 6.96583C24.2625 5.79395 24.2625 3.89552 23.0907 2.72364L21.2485 0.87677C20.0766 -0.295105 18.1782 -0.295105 17.0063 0.87677H17.0016ZM14.7797 8.75177L8.02976 15.5018C7.73914 15.7924 7.26101 15.7924 6.97039 15.5018C6.67976 15.2112 6.67976 14.733 6.97039 14.4424L13.7203 7.69239C14.011 7.40177 14.4891 7.40177 14.7797 7.69239C15.0703 7.98302 15.0703 8.46114 14.7797 8.75177Z" fill="white"/>
</g>
</g>
<defs>
<clipPath id="clip0_14_206">
<rect width="24" height="24" fill="white"/>
</clipPath>
</defs>
</svg>
