<svg width="24" height="24" viewBox="0 0 24 24" fill="none" xmlns="http://www.w3.org/2000/svg">
<path d="M13.7143 3.75C13.7143 2.92031 12.9482 2.25 12 2.25C11.0518 2.25 10.2857 2.92031 10.2857 3.75V10.5H2.57143C1.62321 10.5 0.85714 11.1703 0.85714 12C0.85714 12.8297 1.62321 13.5 2.57143 13.5H10.2857V20.25C10.2857 21.0797 11.0518 21.75 12 21.75C12.9482 21.75 13.7143 21.0797 13.7143 20.25V13.5H21.4286C22.3768 13.5 23.1429 12.8297 23.1429 12C23.1429 11.1703 22.3768 10.5 21.4286 10.5H13.7143V3.75Z" fill="#1E1E1E"/>
</svg>
